<svg height='300px' width='300px'  fill="#000000" xmlns="http://www.w3.org/2000/svg" xmlns:xlink="http://www.w3.org/1999/xlink" version="1.1" x="0px" y="0px" viewBox="0 0 128 128" style="enable-background:new 0 0 128 128;" xml:space="preserve"><title>94Miscellaneous 19</title><path d="M114.5,13.4c0.8,0.8,2,0.8,2.8,0c0,0,0,0,0,0l5.2-5.2c0.1,1.1,1,2,2.1,1.9c0.9,0,1.6-0.7,1.8-1.5l1.4-6.1  c0.2-1.1-0.4-2.1-1.5-2.4c-0.3-0.1-0.7-0.1-1,0l-6.3,1.5c-1.1,0.3-1.7,1.4-1.4,2.4c0.2,0.8,1,1.4,1.8,1.5l-5,5  C113.8,11.3,113.7,12.6,114.5,13.4C114.5,13.4,114.5,13.4,114.5,13.4z"></path><path d="M10.3,4C10.5,3,9.9,1.9,8.8,1.6L2.5,0.1C1.5-0.2,0.4,0.4,0.1,1.5C0,1.8,0,2.1,0.1,2.5l1.4,6.1c0.3,1.1,1.3,1.7,2.4,1.5  c0.9-0.2,1.5-1,1.5-1.8l5.2,5.2c0.8,0.8,2,0.8,2.8,0c0.8-0.8,0.8-2,0-2.8l-5-5C9.4,5.6,10.1,4.9,10.3,4z"></path><path d="M117.7,124c-0.3,1.1,0.4,2.2,1.5,2.4c0,0,0,0,0,0l6.3,1.5c1.1,0.3,2.2-0.4,2.4-1.5c0.1-0.3,0.1-0.6,0-0.9l-1.4-6.1  c-0.3-1.1-1.3-1.7-2.4-1.5c-0.9,0.2-1.5,1-1.5,1.8l-5.2-5.2c-0.8-0.8-2-0.8-2.8,0s-0.8,2,0,2.8l5,5  C118.6,122.5,117.9,123.1,117.7,124z"></path><path d="M0.7,127.4c0.5,0.5,1.2,0.7,1.9,0.5l6.3-1.5c1.1-0.3,1.7-1.4,1.4-2.4c-0.2-0.8-1-1.4-1.8-1.5l5-5c0.8-0.8,0.8-2,0-2.8  c-0.8-0.8-2-0.8-2.8,0l-5.2,5.2c-0.1-1.1-1-2-2.1-1.9c-0.9,0-1.6,0.7-1.8,1.5l-1.4,6.1C-0.1,126.2,0.1,126.9,0.7,127.4z"></path><path d="M91.5,97.2c0.7,0.5,1.5,0.8,2.4,0.8c2.6,0,5.8-2.1,8.5-5.6c2.5-3.1,3.8-6.5,3.5-8.9c-0.2-2-1.9-3.5-3.9-3.5  c-2.6,0-5.8,2.1-8.5,5.6c-2.5,3.1-3.8,6.5-3.5,8.9C90.1,95.6,90.7,96.6,91.5,97.2z"></path><path d="M117,85.8c-1.1,0.1-1.9,1-1.9,2.1c0,0,0,0,0,0l0.4,6.2c0.1,1.1,1,1.9,2.1,1.9c0.3,0,0.5-0.1,0.8-0.2L124,93  c1-0.5,1.4-1.6,1-2.7c-0.5-1-1.6-1.4-2.7-1c0,0-0.1,0-0.1,0.1l-3,1.5l-0.2-3.2C119,86.6,118.1,85.7,117,85.8z"></path><path d="M42,7.9c0.2,0,0.5,0,0.7-0.1l0.9-0.3C44.7,7.1,45.3,6,44.9,5c-0.3-1.1-1.5-1.6-2.5-1.3c0,0-0.1,0-0.1,0l-1,0.3  c-1,0.4-1.6,1.5-1.2,2.6C40.4,7.4,41.2,7.9,42,7.9z"></path><path d="M52.3,1c-0.7,0.1-1.3,0.3-2,0.4c-1.1,0.2-1.8,1.2-1.6,2.3c0.2,1.1,1.2,1.8,2.3,1.6c0,0,0.1,0,0.1,0c0.7-0.1,1.3-0.3,1.9-0.4  c1.1-0.2,1.8-1.3,1.6-2.3C54.5,1.5,53.4,0.8,52.3,1z"></path><path d="M72.5,4.6h0.3c1.1,0.1,2.1-0.8,2.1-1.9s-0.8-2.1-1.9-2.1c-0.7-0.1-1.4-0.1-2.1-0.2c-1.1-0.1-2.1,0.7-2.2,1.8  s0.7,2.1,1.8,2.2C71.2,4.5,71.9,4.5,72.5,4.6z"></path><path d="M82,6.8c1.1,0.2,2.1-0.5,2.3-1.6C84.5,4.3,84,3.4,83.2,3c-0.7-0.2-1.3-0.4-2-0.6c-1-0.3-2.2,0.2-2.5,1.3s0.2,2.2,1.3,2.5  c0.1,0,0.1,0,0.2,0C80.8,6.4,81.4,6.6,82,6.8z"></path><path d="M60.8,4.1c0.7,0,1.3,0,2-0.1c1.1,0,2-0.9,2-2s-0.9-2-2-2l0,0c-0.7,0-1.4,0-2.1,0.1c-1.1,0-2,0.9-1.9,2S59.7,4.1,60.8,4.1  L60.8,4.1z"></path><path d="M99.4,15.6c0.9,0.7,2.1,0.6,2.8-0.3c0.7-0.9,0.6-2.1-0.3-2.8c-0.1,0-0.1-0.1-0.2-0.1c-0.6-0.4-1.1-0.8-1.7-1.2  c-0.9-0.6-2.2-0.4-2.8,0.5c-0.6,0.9-0.4,2.2,0.5,2.8C98.3,14.8,98.8,15.2,99.4,15.6z"></path><path d="M127.9,66.3c0-0.7,0-1.4,0-2.1c0-1.1-0.9-2-2-2l0,0c-1.1,0-2,0.9-2,2c0,0.7,0,1.3,0,2c0,1.1,0.8,2,1.9,2.1c0,0,0,0,0,0h0.1  C127,68.3,127.9,67.4,127.9,66.3z"></path><path d="M126.6,76.6c0.1-0.7,0.3-1.3,0.4-2c0.2-1.1-0.5-2.1-1.6-2.3c-1.1-0.2-2.1,0.5-2.3,1.6c0,0,0,0,0,0c-0.1,0.7-0.2,1.3-0.4,1.9  c-0.2,1.1,0.5,2.1,1.6,2.4C125.3,78.4,126.4,77.7,126.6,76.6L126.6,76.6z"></path><path d="M120.7,34.2c-0.5-1-1.6-1.4-2.6-1c-1,0.5-1.4,1.6-1,2.6c0,0.1,0.1,0.1,0.1,0.2c0.3,0.6,0.6,1.2,0.9,1.7  c0.5,1,1.7,1.4,2.7,0.9c1-0.5,1.4-1.7,0.9-2.7C121.3,35.4,121,34.8,120.7,34.2z"></path><path d="M112.3,25c-0.9,0.7-1,1.9-0.4,2.8c0.4,0.5,0.8,1,1.2,1.6c0.6,0.9,1.9,1.1,2.8,0.5c0.9-0.6,1.1-1.9,0.5-2.8l0,0  c-0.4-0.6-0.8-1.1-1.2-1.7C114.4,24.5,113.1,24.3,112.3,25C112.3,25,112.3,25,112.3,25z"></path><path d="M91,10.5c1,0.5,2.2,0,2.7-1c0.4-1,0.1-2.1-0.9-2.6C92.2,6.6,91.6,6.3,91,6c-0.9-0.6-2.2-0.3-2.7,0.7  c-0.6,0.9-0.3,2.2,0.7,2.7c0.1,0.1,0.2,0.1,0.3,0.2C89.9,9.9,90.5,10.2,91,10.5z"></path><path d="M127.2,53.8c-0.2-1.1-1.2-1.9-2.3-1.7c-1.1,0.2-1.9,1.2-1.7,2.3l0,0c0.1,0.7,0.2,1.3,0.3,1.9c0.1,1,1,1.8,2,1.7h0.2  c1.1-0.1,1.9-1.1,1.7-2.2c0,0,0,0,0,0C127.4,55.2,127.3,54.5,127.2,53.8z"></path><path d="M108.2,22.5c1.1,0,2-0.9,2-2c0-0.5-0.2-1-0.6-1.4c-0.5-0.5-1-1-1.5-1.5c-0.8-0.7-2.1-0.6-2.8,0.2c-0.7,0.8-0.7,2,0.1,2.7  c0.5,0.4,0.9,0.9,1.4,1.4C107.1,22.3,107.7,22.5,108.2,22.5z"></path><path d="M124.7,43.7c-0.3-1.1-1.4-1.7-2.4-1.4c-1.1,0.3-1.7,1.4-1.4,2.4c0,0.1,0.1,0.2,0.1,0.3c0.2,0.6,0.4,1.2,0.6,1.9  c0.3,1.1,1.4,1.7,2.5,1.3c1.1-0.3,1.7-1.4,1.3-2.5l0,0C125.2,45.1,125,44.4,124.7,43.7z"></path><path d="M123.1,82.2c-1-0.4-2.2,0.2-2.5,1.2l-0.3,0.9c-0.4,1,0.1,2.2,1.2,2.6c1,0.4,2.2-0.1,2.6-1.2l0.3-1  C124.7,83.7,124.2,82.5,123.1,82.2z"></path><path d="M42.1,124.1c0.7,0.2,1.3,0.5,2,0.7c1,0.3,2.2-0.2,2.5-1.3s-0.2-2.2-1.3-2.5c-0.6-0.2-1.2-0.4-1.8-0.6  c-1-0.4-2.2,0.2-2.6,1.2S41.1,123.7,42.1,124.1L42.1,124.1z"></path><path d="M36.4,117.2c-0.6-0.3-1.1-0.6-1.7-0.9c-1-0.6-2.2-0.2-2.7,0.7c-0.6,1-0.2,2.2,0.7,2.7c0.6,0.3,1.2,0.7,1.8,1  c1,0.5,2.2,0.1,2.7-0.8C37.8,119,37.4,117.7,36.4,117.2L36.4,117.2z"></path><path d="M28.2,112.1c-0.5-0.4-1-0.8-1.5-1.2c-0.9-0.6-2.2-0.4-2.8,0.5c-0.6,0.8-0.4,1.9,0.3,2.6c0.5,0.4,1.1,0.8,1.6,1.3  c0.8,0.7,2.1,0.6,2.8-0.3c0.7-0.8,0.6-2.1-0.3-2.8C28.4,112.1,28.3,112.1,28.2,112.1L28.2,112.1z"></path><path d="M52.1,126.8c0.7,0.1,1.3,0.2,2,0.3h0.3c1.1,0.1,2.1-0.7,2.2-1.8c0.1-1.1-0.7-2.1-1.8-2.2c-0.7-0.1-1.3-0.2-1.9-0.3  c-1.1-0.2-2.1,0.5-2.3,1.6C50.2,125.5,50.9,126.6,52.1,126.8L52.1,126.8L52.1,126.8z"></path><path d="M2.5,73.7h0.2c1.1-0.1,1.9-1.1,1.7-2.2c-0.1-0.7-0.1-1.3-0.2-1.9c-0.1-1.1-1.1-1.9-2.2-1.8s-1.9,1.1-1.8,2.2  c0.1,0.7,0.1,1.3,0.2,2C0.7,72.9,1.5,73.7,2.5,73.7z"></path><path d="M64.1,124h-1.7c-1.1,0-2,0.8-2.1,1.9c0,1.1,0.8,2,1.9,2.1h1.9h0.2c1.1,0,2-0.9,2-2c0-1.1-0.9-2-2-2H64.1z"></path><path d="M74,123.2c-0.7,0.1-1.3,0.2-1.9,0.3c-1.1,0.1-1.9,1-1.9,2.1c0.1,1.1,1,1.9,2.1,1.9h0.3c0.7-0.1,1.3-0.2,2-0.3  c1.1-0.2,1.9-1.2,1.7-2.3C76.1,123.8,75.1,123,74,123.2z"></path><path d="M83.3,120.8c-0.6,0.2-1.2,0.4-1.8,0.6c-1.1,0.3-1.7,1.4-1.3,2.5c0.3,1.1,1.4,1.7,2.5,1.3l0,0c0.7-0.2,1.3-0.4,2-0.6  c1-0.4,1.6-1.5,1.3-2.5C85.6,121.1,84.4,120.5,83.3,120.8L83.3,120.8z"></path><path d="M0.2,59.6c0,0.7-0.1,1.4-0.1,2.1c0,1.1,0.8,2,1.9,2.1c0,0,0,0,0,0l0,0c1.1,0,2-0.9,2-1.9c0-0.7,0-1.3,0.1-1.9  c0.1-1.1-0.8-2.1-1.9-2.1C1.2,57.6,0.2,58.5,0.2,59.6L0.2,59.6z"></path><path d="M1.7,49.4c-0.2,0.7-0.3,1.3-0.4,2c-0.2,1.1,0.5,2.1,1.6,2.3c1.1,0.2,2.1-0.5,2.3-1.6c0.1-0.7,0.3-1.3,0.4-1.9  c0.2-1.1-0.4-2.1-1.5-2.4S1.9,48.3,1.7,49.4L1.7,49.4z"></path><path d="M19.7,104.3c-0.7-0.8-2-0.9-2.8-0.2s-0.9,2-0.2,2.8c0.5,0.5,0.9,1,1.4,1.5c0.8,0.8,2.1,0.9,2.9,0.1c0.8-0.8,0.8-2.1,0.1-2.9  C20.6,105.2,20.1,104.7,19.7,104.3z"></path><path d="M2.7,82c0.3,1.1,1.4,1.7,2.5,1.4c1.1-0.3,1.7-1.4,1.4-2.5C6.3,80.3,6.2,79.7,6,79c-0.2-1.1-1.3-1.8-2.4-1.5  c-1.1,0.2-1.8,1.3-1.5,2.4c0,0,0,0.1,0,0.1C2.3,80.7,2.5,81.3,2.7,82z"></path><path d="M6.4,91.6c0.5,1,1.6,1.5,2.6,1s1.5-1.6,1-2.6c0,0,0-0.1,0-0.1c-0.3-0.6-0.5-1.2-0.8-1.7c-0.4-1-1.6-1.5-2.6-1  c-1,0.4-1.5,1.6-1,2.6l0,0C5.8,90.4,6.1,91,6.4,91.6z"></path><path d="M11.6,100.5c0.6,0.9,1.9,1.1,2.8,0.5c0.9-0.6,1.1-1.9,0.5-2.8c-0.4-0.5-0.7-1.1-1.1-1.6c-0.6-0.9-1.8-1.3-2.7-0.7  c-0.9,0.6-1.3,1.8-0.7,2.7c0,0,0.1,0.1,0.1,0.1C10.8,99.4,11.2,99.9,11.6,100.5z"></path><path d="M4.8,39.5c-0.3,0.7-0.5,1.3-0.7,1.9c-0.4,1,0.1,2.2,1.1,2.6c1,0.4,2.2-0.1,2.6-1.1c0,0,0,0,0-0.1c0.2-0.6,0.5-1.2,0.7-1.8  c0.4-1-0.2-2.2-1.2-2.6C6.3,38.2,5.2,38.6,4.8,39.5L4.8,39.5z"></path><path d="M10.2,36.5c0.2,1,1,1.6,2,1.6c0.1,0,0.3,0,0.4,0c1.1-0.2,1.8-1.3,1.6-2.3L13,29.7c-0.2-1.1-1.3-1.8-2.3-1.6  c-0.3,0.1-0.5,0.2-0.7,0.3l-5.3,3.5c-0.9,0.6-1.2,1.9-0.6,2.8c0.6,0.9,1.9,1.2,2.8,0.6l2.8-1.8L10.2,36.5z"></path><circle cx="91.4" cy="119.8" r="2"></circle><circle cx="34" cy="9" r="2"></circle><path d="M65.5,53L65.5,53l-0.1-1.6C65.5,51.9,65.5,52.5,65.5,53z"></path><path d="M34.8,67.3l9,15.8c0.1,0.3,0.5,0.6,0.8,0.6c0.4,0,0.7-0.3,0.8-0.6l9-15.8c4.5-3.3,7.2-8.6,7.2-14.2c0-9.4-7.6-17-17-17  s-17,7.6-17,17C27.6,58.8,30.3,64,34.8,67.3z M44.6,39.8c7.3,0.1,13.1,6.1,13,13.4c0,4.3-2,8.4-5.5,10.9c-0.5,0.3-0.9,0.8-1.1,1.3  l-6.3,11.2l-6.3-11.2c-0.3-0.5-0.7-0.9-1.1-1.3c-3.5-2.5-5.5-6.6-5.5-10.9C31.5,45.9,37.3,39.9,44.6,39.8z"></path><ellipse cx="44.6" cy="52.8" rx="7" ry="7"></ellipse><path d="M9,64c0,30.4,24.6,55,55,55s55-24.6,55-55S94.4,9,64,9C33.7,9.1,9.1,33.6,9,64z M38.2,25.4c0.3-1.7,0.2-3.5-0.3-5.2  c5.2-3.1,10.9-5.3,16.9-6.3c-0.4,0.3-0.8,0.7-1,1.2c-0.5,1.2-1.7,1.7-3.8,2.3c-1.9,0.4-3.6,1.3-5,2.6c-1,1-1.5,2.4-1.5,3.8  c0,1.4,0.7,2.7,1.7,3.6c1,0.9,2.3,1.3,3.6,1.3c1.6-0.1,3.2-0.5,4.6-1.3c1.6-0.8,3.1-1.7,4.5-2.7c1.1-0.6,4.3-2.2,6.6-2  c0.3,0,6.4,0.1,10.2-8.2c0-0.1,0.1-0.2,0.1-0.4l1.3,0.3c-1,1.5-2.6,4.4-1.5,6.9c0.4,1,0.4,2,0.2,3c-0.2,0.1-0.3,0.1-0.5,0.1  c-1.5-0.1-11.5-0.7-12.2,5.3c0,0.1,0,0.2,0,0.3c-0.1,2.2-0.6,3.2-0.9,3.5c-0.6,0.5-1.2,0.9-1.8,1.3c-0.3,0.2-0.6,0.4-0.9,0.5  l-1.1,0.7c0.5,0.4,1.1,0.9,1.6,1.3c0.5,0.5,1,1,1.4,1.5l0,0c0.6,0.7,1.2,1.5,1.8,2.3h0.1c7.1-0.6,15.5-1.2,19.4,2.5  c1.5,1.5,2.2,3.5,2,5.6c-0.1,1.2-0.7,2.3-1.7,3.1c-1.4,1.3-3.4,1.8-6.1,1.7h-0.3c-4.7-0.2-7.3-0.5-8.4-0.8L65.5,53v0.2  c0,6.6-3,12.7-8.1,16.8l-1.9,3.3c-0.2,1.3-0.3,2.5-0.2,3.8c0.1,0,0.2,0,0.2,0c1.1-0.2,4.4-0.5,6,1c0.9,0.8,1.2,2,1,3.8  c-0.1,1.4,0.3,2.9,1.1,4.1c0.2,0.4,0.4,0.8,0.6,1.2c0.3,1.3,0.5,2.7,0.5,4.1c0,1.4,0.1,2.8,0.4,4.1c0.5,3,1.9,5.7,3.9,8  c1.1,1.1,2.5,1.8,4.1,1.8c1.9-0.1,3.7-0.8,5.2-1.9c2.3-1.6,4.4-3.5,6.3-5.6c1.3-1.4,2.2-3,2.7-4.8c0.3-1.5,0.5-3,0.6-4.6  c0.1-1.6,0.3-3.3,0.8-4.8c0.7-1.7,1.8-3.4,3-4.8c0.6-0.8,1.2-1.6,1.8-2.4c0.5-0.7,0.9-1.4,1.3-2.1l0.6-1c0.5-0.9,1.4-2.2,0.9-3.7  c-0.3-0.9-1.1-1.7-2.1-2c-0.5-0.2-1.1-0.4-1.6-0.6c-1.1-0.3-2-0.7-2.9-1.4c-2.2-1.8-3.5-4.4-3.7-7.2c0,0,0-0.1,0-0.1  c0.6,0.5,1.1,1.1,1.5,1.7c0.3,0.4,0.6,0.8,0.9,1.1c1.7,2.1,3.9,2.9,5.9,2.3c2.1-0.6,3-2.3,3.7-3.6c0.1-0.2,0.3-0.4,0.4-0.6  c1.3-2,1.8-3.7,1.4-5.2c-0.1-0.6-0.4-1.1-0.8-1.6l0.5,0.2c1.7,0.7,3.2,2,4.1,3.6c0.1,0.2,0.2,0.4,0.3,0.6c0.7,1.5,2.1,4.4,4.7,4.1  c3.2-0.4,4.1-5,4.2-6.1c0.1-0.8,0.4-1.5,0.8-2.1c6.3,27.4-10.9,54.7-38.3,61c-1.5,0.3-2.9,0.6-4.4,0.8c-11.1-11.4-25.6-3.5-25.7-3.4  c-0.1,0.1-0.2,0.1-0.3,0.2c-5.3-2.1-10.2-5.1-14.5-8.9c0,0,0-0.1,0-0.1c-0.6-1.7-0.2-10.6,0.2-12.3c0.2-0.8,0.5-1.6,0.8-2.4  c0.8-1.8,1.2-3.7,1.1-5.6c-0.3-4-3.1-6.4-5.6-8.5c-2.2-1.8-4-3.4-4.3-5.7c-0.3-2.4-0.3-4.9-0.1-7.3c0-0.1,0-0.1,0-0.2  c-0.1-4.6-5.4-6.1-8.6-6.3c0.8-4.3,2.2-8.5,4.1-12.4l0.1-0.1c1.2-1.3,9.5-7,12.6-8.4C33.6,32.1,37.3,30,38.2,25.4z"></path><path d="M65.1,48.7c1.1,0.3,2.1,0.6,3.1,0.9c0.4,0.1,1.8,0.4,7.4,0.7h0.3c2.6,0.1,3.4-0.7,3.5-1.2c0.1-0.9-0.2-1.8-0.8-2.4  c-2.3-2.3-9.1-2-14.6-1.5l0.1,0.3C64.5,46.5,64.8,47.6,65.1,48.7z"></path></svg>